<svg xmlns="http://www.w3.org/2000/svg" width="36" height="36.04" viewBox="0 0 36 36.04">
  <g id="グループ_37" data-name="グループ 37" transform="translate(-910.839 -965)">
    <path id="パス_71" data-name="パス 71" d="M920.9,967.734q9.559-.46,19.133-.028a35.18,35.18,0,0,0-.1,5.747,18.271,18.271,0,0,1,5.3.181,1.736,1.736,0,0,1,.907.363,1.826,1.826,0,0,1,.43,1.038c.4,2.188.766,4.613-.409,6.5a5.222,5.222,0,0,1-4.881,2.268,1.353,1.353,0,0,0-.955.116,1.287,1.287,0,0,0-.369.657A10.135,10.135,0,0,1,933.188,991a7.5,7.5,0,0,0,3.419,5.783,11.845,11.845,0,0,1,2.724,1.792c.727.815.9,2.287-.017,2.882a2.7,2.7,0,0,1-1.461.3l-7.644.088a39.942,39.942,0,0,1-7.234-.356c-1.031-.177-2.235-.618-2.445-1.643-.224-1.095.881-2.015,1.945-2.353s2.267-.415,3.123-1.134a5.158,5.158,0,0,0,1.368-3.286l.451-2.852a11.325,11.325,0,0,1-5.909-5.553,2.456,2.456,0,0,0-.556-.863,2.845,2.845,0,0,0-1.589-.4c-2.8-.3-4.917-3.016-5.22-5.816-.2-1.9.639-4.215,2.521-4.539,1.492-.256,3.391.741,4.343-.436.885-1.093-.232-2.767.189-4.109" transform="translate(-1.773 -1.352)" fill="#fff785"/>
    <path id="パス_72" data-name="パス 72" d="M942.741,977.906l1.9,3.848,4.247.617-3.073,3,.725,4.229-3.8-2-3.8,2,.725-4.229-3.073-3,4.247-.617Z" transform="translate(-13.947 -6.988)" fill="#41a9cc"/>
    <path id="パス_73" data-name="パス 73" d="M941.744,1033.143a.913.913,0,0,0,.913.913h5.358a.913.913,0,0,0,0-1.827h-5.358A.913.913,0,0,0,941.744,1033.143Z" transform="translate(-16.735 -36.405)"/>
    <path id="パス_74" data-name="パス 74" d="M943.406,970.943H942.18a.913.913,0,1,0,0,1.826h1.225a1.6,1.6,0,0,1,1.6,1.789c-.672,5.636-3.314,6.938-5.618,7.181a10.822,10.822,0,0,0,.248-2.305V965.913a.913.913,0,0,0-.913-.913h-19.8a.913.913,0,0,0-.913.913v13.521a10.812,10.812,0,0,0,.247,2.3c-2.295-.255-4.91-1.573-5.578-7.176a1.6,1.6,0,0,1,1.6-1.789H915.5a.913.913,0,1,0,0-1.826h-1.225a3.43,3.43,0,0,0-3.409,3.831c.677,5.682,3.362,8.651,7.983,8.832a10.868,10.868,0,0,0,6.475,6.058,6.694,6.694,0,0,1-1.049,3.438,10.868,10.868,0,0,1-3.857,2.32,2.908,2.908,0,0,0-1.809,2.7v.006a2.918,2.918,0,0,0,2.915,2.915h14.6a2.918,2.918,0,0,0,2.915-2.915v-.006a2.908,2.908,0,0,0-1.809-2.7,10.867,10.867,0,0,1-3.858-2.32,6.724,6.724,0,0,1-1.047-3.438,10.866,10.866,0,0,0,6.474-6.056c4.645-.165,7.343-3.135,8.023-8.833a3.429,3.429,0,0,0-3.409-3.831Zm-11.431,23.343a12.845,12.845,0,0,0,4.553,2.826,1.087,1.087,0,0,1,.678,1.008v.006a1.09,1.09,0,0,1-1.089,1.088h-14.6a1.09,1.09,0,0,1-1.089-1.088v-.006a1.087,1.087,0,0,1,.678-1.008,12.847,12.847,0,0,0,4.554-2.826,7.944,7.944,0,0,0,1.453-4.175,10.821,10.821,0,0,0,3.406,0A7.944,7.944,0,0,0,931.975,994.286Zm-3.156-5.867a9,9,0,0,1-8.985-8.985V966.827H937.8v12.607A9,9,0,0,1,928.819,988.419Z"/>
    <path id="パス_75" data-name="パス 75" d="M947.855,979.246l-4.3-.621-1.919-3.9a.913.913,0,0,0-1.639,0l-1.919,3.9-4.3.621a.913.913,0,0,0-.506,1.558l3.113,3.03-.738,4.281a.913.913,0,0,0,1.326.963l3.843-2.025,3.844,2.025a.913.913,0,0,0,1.326-.963l-.738-4.281,3.114-3.03a.913.913,0,0,0-.507-1.558Zm-4.226,3.614a.913.913,0,0,0-.263.81l.5,2.927-2.628-1.385a.912.912,0,0,0-.851,0l-2.628,1.385.5-2.927a.914.914,0,0,0-.263-.81l-2.129-2.072,2.94-.425a.913.913,0,0,0,.689-.5l1.312-2.665,1.312,2.665a.914.914,0,0,0,.689.5l2.94.425Z" transform="translate(-11.999 -4.992)"/>
  </g>
</svg>
