<svg xmlns="http://www.w3.org/2000/svg" width="42" height="34.217" viewBox="0 0 42 34.217">
  <g id="グループ_28" data-name="グループ 28" transform="translate(-28.534 -280.446)">
    <path id="パス_25" data-name="パス 25" d="M40.1,347.168l-3.986,3.986-1.524,5.31,5.31-1.524,3.874-3.874Z" transform="translate(-3.89 -42.865)" fill="#fff"/>
    <path id="パス_26" data-name="パス 26" d="M32.676,356.176a1.064,1.064,0,0,1-1.023-1.358l1.524-5.31a1.068,1.068,0,0,1,.271-.459l3.986-3.986,1.505,1.505-3.791,3.791-.918,3.2,3.2-.918,3.679-3.679,1.505,1.505-3.874,3.874a1.068,1.068,0,0,1-.459.271l-5.31,1.524A1.058,1.058,0,0,1,32.676,356.176Z" transform="translate(-1.977 -41.513)"/>
    <path id="パス_27" data-name="パス 27" d="M55.161,359.306v1.636a1.87,1.87,0,0,0,3.737,0v-1.636Z" transform="translate(-17.107 -50.663)" fill="#ffead7"/>
    <path id="パス_28" data-name="パス 28" d="M55.117,361.89a2.9,2.9,0,0,1-2.933-2.86v-1.636a1.064,1.064,0,0,1,1.064-1.064h3.737a1.064,1.064,0,0,1,1.064,1.064v1.636A2.9,2.9,0,0,1,55.117,361.89Zm-.8-3.432v.572a.808.808,0,0,0,1.608,0v-.572Z" transform="translate(-15.194 -48.751)"/>
    <path id="パス_29" data-name="パス 29" d="M65.613,359.306v1.636a1.87,1.87,0,0,0,3.737,0V359.63a.324.324,0,0,0-.324-.324Z" transform="translate(-23.822 -50.663)" fill="#ffead7"/>
    <path id="パス_30" data-name="パス 30" d="M65.569,361.89a2.9,2.9,0,0,1-2.933-2.86v-1.636a1.064,1.064,0,0,1,1.064-1.064h3.412a1.39,1.39,0,0,1,1.389,1.389v1.312A2.9,2.9,0,0,1,65.569,361.89Zm-.8-3.432v.572a.808.808,0,0,0,1.609,0v-.572Z" transform="translate(-21.909 -48.751)"/>
    <path id="パス_31" data-name="パス 31" d="M36.925,326.779c-2.941,2.767-5.852.08-5.36-.774l5.86-9.713,8.492-5.308c5.187,0,8.252,1.033,10.437,2.277C56.354,313.261,39.955,323.927,36.925,326.779Z" transform="translate(-1.912 -19.619)" fill="#ffead7"/>
    <path id="パス_32" data-name="パス 32" d="M32.271,327.145a4.231,4.231,0,0,1-2.621-.9c-1.012-.8-1.382-1.878-.919-2.68l.011-.018,5.86-9.713a1.069,1.069,0,0,1,.347-.353l8.492-5.308a1.064,1.064,0,0,1,.564-.162c4.586,0,8.069.768,10.964,2.417l-1.054,1.85c-1.581-.9-4.288-2.092-9.607-2.136l-8.015,5.01-5.553,9.2a2.008,2.008,0,0,0,1.054.614,2.717,2.717,0,0,0,2.49-.874l1.458,1.55A5.048,5.048,0,0,1,32.271,327.145Z" transform="translate(0 -17.706)"/>
    <rect id="長方形_211" data-name="長方形 211" width="6.844" height="14.324" transform="translate(69.469 310.767) rotate(180)" fill="#fff"/>
    <path id="パス_33" data-name="パス 33" d="M128.814,338.661H121.97a1.064,1.064,0,0,1-1.064-1.064V323.272a1.064,1.064,0,0,1,1.064-1.064h6.844a1.064,1.064,0,0,1,1.064,1.064V337.6A1.064,1.064,0,0,1,128.814,338.661Zm-5.779-2.129h4.715v-12.2h-4.715Z" transform="translate(-59.345 -26.83)"/>
    <path id="パス_34" data-name="パス 34" d="M133.361,356.094a.037.037,0,1,1,0,.052A.037.037,0,0,1,133.361,356.094Z" transform="translate(-67.339 -48.593)" fill="#fff"/>
    <path id="パス_35" data-name="パス 35" d="M131.475,355.307a1.1,1.1,0,1,1,.778-.322A1.1,1.1,0,0,1,131.475,355.307Z" transform="translate(-65.427 -46.68)"/>
    <path id="パス_36" data-name="パス 36" d="M53.729,315.211,73.8,295.143l-3.786-3.786L50.086,311.281Z" transform="translate(-13.846 -7.01)" fill="#41a9cc"/>
    <path id="パス_37" data-name="パス 37" d="M53.129,314.051l-1.505-1.505,19.315-19.315-2.281-2.281L49.486,310.122l-1.505-1.505,19.924-19.924a1.064,1.064,0,0,1,1.5,0l3.786,3.786a1.064,1.064,0,0,1,0,1.505Z" transform="translate(-12.494 -5.097)"/>
    <path id="長方形_212" data-name="長方形 212" d="M2.677,0h0A2.677,2.677,0,0,1,5.354,2.677V5.354a0,0,0,0,1,0,0H0a0,0,0,0,1,0,0V2.677A2.677,2.677,0,0,1,2.677,0Z" transform="translate(59.95 280.561) rotate(45)" fill="#fff"/>
    <path id="パス_38" data-name="パス 38" d="M107.684,289.2a1.061,1.061,0,0,1-.753-.312l-3.786-3.786a1.064,1.064,0,0,1,0-1.505l2.168-2.168a3.356,3.356,0,0,1,4.741,0l.55.55a3.357,3.357,0,0,1,0,4.741l-2.168,2.168A1.061,1.061,0,0,1,107.684,289.2Zm-2.281-4.851,2.281,2.281,1.416-1.416a1.225,1.225,0,0,0,0-1.731l-.55-.55a1.225,1.225,0,0,0-1.731,0Z" transform="translate(-47.734)"/>
    <path id="パス_39" data-name="パス 39" d="M74.267,332.353c-2.676,0-3.16,2.124-7.37,2.124s-4.872-2.124-9.144-2.124H49.034a2.38,2.38,0,0,1,0-4.76h8.5a2.34,2.34,0,0,0,2.339-2.339v-1.69l6.211-6.212c3.311,1.886,4.6,4.258,8.184,4.258Z" transform="translate(-11.641 -23.71)" fill="#ffead7"/>
    <path id="パス_40" data-name="パス 40" d="M64.984,333.629a11.212,11.212,0,0,1-4.959-1.144,9.292,9.292,0,0,0-4.185-.98H47.121a3.444,3.444,0,1,1,0-6.888h8.5a1.277,1.277,0,0,0,1.275-1.275v-1.69a1.063,1.063,0,0,1,.312-.753l6.211-6.211a1.064,1.064,0,0,1,1.279-.172,24.032,24.032,0,0,1,2.9,2.012c1.578,1.223,2.718,2.107,4.753,2.107a1.064,1.064,0,0,1,1.064,1.064V330.44a1.064,1.064,0,0,1-1.064,1.064,4.288,4.288,0,0,0-2.268.75A9.331,9.331,0,0,1,64.984,333.629Zm-17.863-6.884a1.316,1.316,0,1,0,0,2.631H55.84a11.357,11.357,0,0,1,5.031,1.156,9.04,9.04,0,0,0,4.112.969,7.3,7.3,0,0,0,4.071-1.108,7.372,7.372,0,0,1,2.235-.916V320.7A9.876,9.876,0,0,1,66.3,318.21c-.612-.474-1.24-.961-1.964-1.427l-5.31,5.31v1.249a3.407,3.407,0,0,1-3.4,3.4Z" transform="translate(-9.729 -21.798)"/>
  </g>
</svg>
