<svg xmlns="http://www.w3.org/2000/svg" width="30.884" height="41.323" viewBox="0 0 30.884 41.323">
  <g id="グループ_242" data-name="グループ 242" transform="translate(-1962.835 -1179.522)">
    <path id="パス_271" data-name="パス 271" d="M1979.723,1211.876c-1.914-.065-3.675.957-5.315,1.946-.9.545-1.939,1.354-1.758,2.395.147.848,1.033,1.325,1.818,1.677a43.6,43.6,0,0,0,7.168,2.712,30.952,30.952,0,0,1,4.446,1.183,15.993,15.993,0,0,1,2.6,1.456q2.037,1.335,3.973,2.818a4.59,4.59,0,0,1,1.469,1.565,3.857,3.857,0,0,1-.266,3.191,17.767,17.767,0,0,0-1.36,3.007,4.337,4.337,0,0,1-.352,1.166,3,3,0,0,1-1.895,1.117,25.4,25.4,0,0,1-10.312,1.348,36.89,36.89,0,0,1-10.354-1.3.4.4,0,0,1-.147-.071c-.165-.143-.023-.408.121-.572l2.317-2.629c1.2-1.359,2.458-2.868,2.538-4.677a5.882,5.882,0,0,0-2.2-4.412c-1.259-1.139-2.773-1.953-4.134-2.968a7.447,7.447,0,0,1-3.021-3.973,1.533,1.533,0,0,1-.014-.584c.21-1.627,2.452-2.516,3.363-2.878a14.064,14.064,0,0,1,4.9-.828,53.645,53.645,0,0,1,6.115.059" transform="translate(-1.128 -16.656)" fill="#fffcd5"/>
    <path id="パス_272" data-name="パス 272" d="M1998.2,1202.019a74.285,74.285,0,0,0-5.127-7.213,12.458,12.458,0,0,1-1.982-2.964,16.3,16.3,0,0,1-.658-2.431,4.4,4.4,0,0,1-.194-1.388,3.31,3.31,0,0,1,.279-.984,10.077,10.077,0,0,1,9.25-6.038,2.641,2.641,0,0,1,.93.147,3.067,3.067,0,0,1,.819.554l1.922,1.626a4.676,4.676,0,0,1,1.232,1.359,4.425,4.425,0,0,1,.352,1.155q.348,1.721.536,3.47a5.731,5.731,0,0,1-.556,3.848c-.537.793-1.418,1.29-1.99,2.058a18.448,18.448,0,0,0-1.126,2.2,5.3,5.3,0,0,1-1.809,1.914,2.867,2.867,0,0,0-.934.729,2.28,2.28,0,0,0-.281.8l-.5,2.345" transform="translate(-14.105 -0.761)" fill="#41a9cc"/>
    <circle id="楕円形_58" data-name="楕円形 58" cx="2.183" cy="2.183" r="2.183" transform="translate(1982.322 1186.061)" fill="#fff"/>
    <g id="グループ_241" data-name="グループ 241" transform="translate(1962.835 1179.522)">
      <path id="パス_273" data-name="パス 273" d="M1998.05,1236.691a.727.727,0,0,1-.6-1.141c2.056-2.983,2.716-5.509,1.961-7.507-1.513-4.007-8.3-5.706-13.76-7.07-3.029-.758-5.421-1.356-6.643-2.248-1.672-1.219-1.817-2.345-1.644-3.074.4-1.706,2.858-2.947,7.293-3.686a.728.728,0,1,1,.239,1.436c-4.229.7-5.938,1.833-6.116,2.586-.135.572.622,1.224,1.085,1.562.994.725,3.493,1.35,6.139,2.012,5.786,1.447,12.986,3.248,14.769,7.968.933,2.471.219,5.448-2.124,8.848A.727.727,0,0,1,1998.05,1236.691Z" transform="translate(-1970.286 -1196.22)" fill="#333"/>
      <path id="パス_274" data-name="パス 274" d="M1968.38,1235.635a.728.728,0,0,1-.469-1.285c3.206-2.691,4.774-5.08,4.659-7.1-.145-2.571-2.958-4.435-5.441-6.081-1.629-1.079-3.035-2.011-3.652-3.1a3.74,3.74,0,0,1-.336-3.545c.954-2.064,4.04-3.531,9.713-4.613a.728.728,0,1,1,.273,1.43c-6.265,1.195-8.169,2.722-8.664,3.793a2.348,2.348,0,0,0,.281,2.216,11.3,11.3,0,0,0,3.19,2.6c2.631,1.743,5.9,3.912,6.091,7.212.143,2.538-1.55,5.252-5.176,8.3A.727.727,0,0,1,1968.38,1235.635Z" transform="translate(-1962.835 -1195.163)" fill="#333"/>
      <path id="パス_275" data-name="パス 275" d="M1997.946,1204.455l-.7-2.32a16.158,16.158,0,0,0-4.07-6.405c-1.935-2.141-3.764-4.164-3.764-7.677a8.531,8.531,0,1,1,17.062,0c0,3.513-1.829,5.535-3.764,7.677a16.151,16.151,0,0,0-4.07,6.405Zm0-23.478a7.355,7.355,0,0,0-7.075,7.076c0,2.952,1.57,4.689,3.388,6.7a20.3,20.3,0,0,1,3.687,5.128,20.284,20.284,0,0,1,3.688-5.128c1.818-2.011,3.388-3.749,3.388-6.7A7.355,7.355,0,0,0,1997.946,1180.977Z" transform="translate(-1976.52 -1179.522)" fill="#333"/>
      <path id="パス_276" data-name="パス 276" d="M2003.477,1196.881a3.318,3.318,0,1,1,3.339-3.318A3.333,3.333,0,0,1,2003.477,1196.881Zm0-5.181a1.863,1.863,0,1,0,1.883,1.863A1.876,1.876,0,0,0,2003.477,1191.7Z" transform="translate(-1982.04 -1185.042)" fill="#333"/>
    </g>
  </g>
</svg>
