<svg xmlns="http://www.w3.org/2000/svg" width="31.805" height="35.274" viewBox="0 0 31.805 35.274">
  <g id="グループ_109" data-name="グループ 109" transform="translate(-1388.702 -980.927)">
    <g id="グループ_94" data-name="グループ 94" transform="translate(1400.274 1008.272)">
      <path id="パス_89" data-name="パス 89" d="M1419.038,1033.042v4.969a.9.9,0,0,1-.39.74l-.373.255a6.482,6.482,0,0,1-7.135,0l-.373-.256a.894.894,0,0,1-.39-.739v-4.969a.9.9,0,1,1,1.793,0v4.5a4.671,4.671,0,0,0,5.074,0v-4.5a.9.9,0,1,1,1.793,0Z" transform="translate(-1410.378 -1032.146)"/>
    </g>
    <g id="グループ_95" data-name="グループ 95" transform="translate(1394.901 987.16)">
      <path id="パス_90" data-name="パス 90" d="M1410.062,992.6h-.091a9.739,9.739,0,0,0-9.658,9.728,9.134,9.134,0,0,0,2.222,6.11,8.684,8.684,0,0,1,2.092,5.1,2.135,2.135,0,0,0,.679,1.4,2.067,2.067,0,0,0,.381.28,2.123,2.123,0,0,0,1.07.288h6.52a2.121,2.121,0,0,0,1.07-.288,2.1,2.1,0,0,0,.38-.281,2.132,2.132,0,0,0,.679-1.4,8.684,8.684,0,0,1,2.093-5.1,9.136,9.136,0,0,0,2.221-6.109A9.739,9.739,0,0,0,1410.062,992.6Zm6,14.77a10.431,10.431,0,0,0-2.439,6.023.343.343,0,0,1-.342.318h-6.52a.343.343,0,0,1-.342-.318,10.43,10.43,0,0,0-2.439-6.023,7.431,7.431,0,0,1-1.87-5.042,7.911,7.911,0,1,1,15.822,0A7.429,7.429,0,0,1,1416.058,1007.373Z" transform="translate(-1400.313 -992.602)"/>
      <path id="パス_91" data-name="パス 91" d="M1418.811,1035.5v3.6a4.671,4.671,0,0,1-5.074,0v-3.6Z" transform="translate(-1406.57 -1012.6)" fill="#41a9cc"/>
      <path id="パス_92" data-name="パス 92" d="M1411.582,995.96a7.944,7.944,0,0,0-7.911,7.936,7.431,7.431,0,0,0,1.87,5.042,10.432,10.432,0,0,1,2.439,6.023.343.343,0,0,0,.342.318h6.52a.343.343,0,0,0,.342-.318,10.433,10.433,0,0,1,2.439-6.023,7.428,7.428,0,0,0,1.87-5.042A7.944,7.944,0,0,0,1411.582,995.96Zm2.356,10.294-1.437,1.436v5.5a.9.9,0,0,1-1.793,0v-5.5l-1.436-1.436a.9.9,0,0,1,1.267-1.268l1.065,1.065,1.066-1.065a.9.9,0,1,1,1.267,1.268Z" transform="translate(-1401.878 -994.167)" fill="#fff785"/>
    </g>
    <g id="グループ_106" data-name="グループ 106" transform="translate(1388.702 980.927)">
      <g id="グループ_96" data-name="グループ 96" transform="translate(14.982)">
        <path id="パス_93" data-name="パス 93" d="M1417.66,985.965a.9.9,0,0,1-.872-1.1v-3.038a.9.9,0,1,1,1.792,0v3.038a.9.9,0,0,1-.871,1.1h-.05Z" transform="translate(-1416.764 -980.927)"/>
      </g>
      <g id="グループ_97" data-name="グループ 97" transform="translate(6.706 2.413)">
        <path id="パス_94" data-name="パス 94" d="M1403.83,990.131a.9.9,0,0,1-.777-.448l-1.669-2.892a.9.9,0,1,1,1.552-.9l1.669,2.892a.9.9,0,0,1-.775,1.345Z" transform="translate(-1401.262 -985.446)"/>
      </g>
      <g id="グループ_98" data-name="グループ 98" transform="translate(21.636 2.412)">
        <path id="パス_95" data-name="パス 95" d="M1430.124,990.131a.9.9,0,0,1-.775-1.344l1.67-2.892a.9.9,0,1,1,1.552.9l-1.669,2.892A.9.9,0,0,1,1430.124,990.131Z" transform="translate(-1429.229 -985.446)"/>
      </g>
      <g id="グループ_99" data-name="グループ 99" transform="translate(1.235 8.838)">
        <path id="パス_96" data-name="パス 96" d="M1394.8,1000.944a.9.9,0,0,1-.448-.12l-2.892-1.669a.9.9,0,1,1,.9-1.553l2.892,1.669a.9.9,0,0,1-.449,1.673Z" transform="translate(-1391.015 -997.482)"/>
      </g>
      <g id="グループ_100" data-name="グループ 100" transform="translate(25.885 8.838)">
        <path id="パス_97" data-name="パス 97" d="M1438.085,1000.944a.9.9,0,0,1-.449-1.673l2.892-1.669a.9.9,0,1,1,.9,1.553l-2.891,1.669A.894.894,0,0,1,1438.085,1000.944Z" transform="translate(-1437.188 -997.482)"/>
      </g>
      <g id="グループ_101" data-name="グループ 101" transform="translate(24.345 22.181)">
        <path id="パス_98" data-name="パス 98" d="M1438.056,1025.916a.891.891,0,0,1-.448-.12l-2.858-1.65a.9.9,0,1,1,.9-1.552l2.858,1.65a.9.9,0,0,1-.449,1.673Z" transform="translate(-1434.302 -1022.473)"/>
      </g>
      <g id="グループ_102" data-name="グループ 102" transform="translate(26.688 16.789)">
        <path id="パス_99" data-name="パス 99" d="M1442.911,1014.167h-3.324a.9.9,0,0,1,0-1.793h3.324a.9.9,0,0,1,0,1.793Z" transform="translate(-1438.691 -1012.374)"/>
      </g>
      <g id="グループ_103" data-name="グループ 103" transform="translate(0 16.789)">
        <path id="パス_100" data-name="パス 100" d="M1392.923,1014.167H1389.6a.9.9,0,0,1,0-1.793h3.325a.9.9,0,0,1,0,1.793Z" transform="translate(-1388.702 -1012.374)"/>
      </g>
      <g id="グループ_104" data-name="グループ 104" transform="translate(2.809 22.181)">
        <path id="パス_101" data-name="パス 101" d="M1394.861,1025.916a.9.9,0,0,1-.449-1.673l2.859-1.65a.9.9,0,1,1,.9,1.552l-2.858,1.65A.89.89,0,0,1,1394.861,1025.916Z" transform="translate(-1393.963 -1022.473)"/>
      </g>
      <g id="グループ_105" data-name="グループ 105" transform="translate(14.982 3.245)">
        <path id="パス_102" data-name="パス 102" d="M1417.66,988.8a.9.9,0,0,1,0-1.793h.024a.9.9,0,0,1,.005,1.793h-.027Z" transform="translate(-1416.764 -987.006)"/>
      </g>
    </g>
    <g id="グループ_107" data-name="グループ 107" transform="translate(1402.034 997.716)">
      <path id="パス_103" data-name="パス 103" d="M1418.6,1013.9l-1.437,1.436-.262.263a.9.9,0,0,1-1.267,0l-.263-.263-1.436-1.436a.9.9,0,0,1,1.267-1.268l1.064,1.065,1.066-1.065a.9.9,0,0,1,1.267,1.268Z" transform="translate(-1413.673 -1012.374)"/>
    </g>
    <g id="グループ_108" data-name="グループ 108" transform="translate(1403.732 999.415)">
      <path id="パス_104" data-name="パス 104" d="M1418.647,1016.452v5.869a.9.9,0,0,1-1.793,0v-5.869a.9.9,0,0,1,1.793,0Z" transform="translate(-1416.854 -1015.556)"/>
    </g>
  </g>
</svg>
