<svg xmlns="http://www.w3.org/2000/svg" width="47.307" height="39.169" viewBox="0 0 47.307 39.169">
  <g id="グループ_328" data-name="グループ 328" transform="translate(-164 -3103.831)">
    <ellipse id="楕円形_22" data-name="楕円形 22" cx="22.5" cy="2.5" rx="22.5" ry="2.5" transform="translate(166 3138)" fill="#f5e7e7"/>
    <g id="グループ_90" data-name="グループ 90" transform="translate(-1139.85 2112.716)">
      <path id="パス_85" data-name="パス 85" d="M1362.6,1029.9q.6,1.83,1.354,3.609a1.78,1.78,0,0,1,.209.963,1.179,1.179,0,0,1-.732.829,3.482,3.482,0,0,1-1.129.207,1.041,1.041,0,0,1-1.147-.456,1.888,1.888,0,0,1-.548-2.417,9.672,9.672,0,0,1,1.338-2.564" transform="translate(-16.799 -11.525)" fill="#fff785"/>
      <path id="パス_86" data-name="パス 86" d="M1327.971,992c4.389,2.552,18.254,10.664,20.291,12.762.3.312,1.22,1.219.9,1.73a1.523,1.523,0,0,1-1.191.493A12.742,12.742,0,0,0,1340,1011.1a2.5,2.5,0,0,0-.605.959,2.634,2.634,0,0,0,.009,1.113c.325,2.033.91,4.07.678,6.116a9.438,9.438,0,0,1-5.739,7.247,15.064,15.064,0,0,1-9.5.51,13.838,13.838,0,0,1-7.78-4.576,8.127,8.127,0,0,1-1.077-8.624,1.854,1.854,0,0,0,.376-1.4,1.593,1.593,0,0,0-.661-.718,63.307,63.307,0,0,0-11.458-6.408c8.671-3.436,12.608-5.97,14.585-7.7,1.524-1.332,3.02-3.178,5.623-3.514,1.215-.157,2.978-.024,3.474-.984A1.537,1.537,0,0,0,1327.971,992Z" transform="translate(-0.119 -0.263)" fill="#41a9cc"/>
      <path id="パス_87" data-name="パス 87" d="M1349.771,1002.546l-19.19-10.629a6.317,6.317,0,0,0-6.156,0l-19.19,10.629a2.688,2.688,0,0,0,0,4.7l9.345,5.177-.564,5.231a7.471,7.471,0,0,0,2.1,5.848,13.444,13.444,0,0,0,5.041,3.38,18.791,18.791,0,0,0,6.894,1.281c4.464,0,8.387-1.519,10.764-4.166a8.143,8.143,0,0,0,2.175-6.343l-.565-5.231,3.975-2.2v5.9l-1.778,4.849a3.17,3.17,0,1,0,5.953,0l-1.777-4.849v-7.226l2.972-1.647a2.687,2.687,0,0,0,0-4.7Zm-3.538,19.958a.773.773,0,0,1-1.359-.708l.725-1.979.725,1.979A.767.767,0,0,1,1346.233,1022.5Zm-7.627-4.59a5.7,5.7,0,0,1-1.575,4.483c-1.922,2.142-5.2,3.37-8.98,3.37-4.121,0-8.011-1.48-10.151-3.864a5.232,5.232,0,0,1-1.5-3.989l.457-4.228,7.569,4.193a6.318,6.318,0,0,0,6.156,0l7.568-4.193Zm10-12.763-3.216,1.782-14.352-2.61a3.608,3.608,0,1,0-.434,2.358l11.474,2.087-12.662,7.014a3.932,3.932,0,0,1-3.833,0l-19.189-10.63a.289.289,0,0,1,0-.507l19.189-10.63a3.935,3.935,0,0,1,3.833,0l19.19,10.63a.29.29,0,0,1,0,.507Z"/>
    </g>
  </g>
</svg>
